<?xml version="1.0" encoding="utf-8"?>
<svg xmlns="http://www.w3.org/2000/svg"
	xmlns:xlink="http://www.w3.org/1999/xlink"
	width="13px" height="17px" viewBox="0 0 13 17">
<path fillRule="evenodd" d="M 3 12.19C 1.34 12.19 0 10.85 0 9.19 0 9.19 0 7.19 0 7.19 0 5.54 1.34 4.19 3 4.19 3 4.19 4 4.19 4 4.19 4 4.19 9 0.19 9 0.19 9 0.19 9 16.19 9 16.19 9 16.19 4 12.19 4 12.19 4 12.19 3 12.19 3 12.19ZM 13 8.19C 13 10.05 11.72 11.6 10 12.05 10 12.05 10 9.91 10 9.91 10.6 9.57 11 8.93 11 8.19 11 7.45 10.6 6.82 10 6.47 10 6.47 10 4.33 10 4.33 11.72 4.78 13 6.33 13 8.19Z" fill="rgb(151,151,151)" opacity="0.80"/></svg>