<?xml version="1.0" encoding="utf-8"?>
<svg xmlns="http://www.w3.org/2000/svg"
	xmlns:xlink="http://www.w3.org/1999/xlink"
	width="16px" height="15px" viewBox="0 0 16 15">
<path fillRule="evenodd" d="M 13 14.09C 13 14.09 3 14.09 3 14.09 1.34 14.09 0 12.74 0 11.09 0 11.09 0 6.09 0 6.09 0 4.43 1.34 3.09 3 3.09 3 3.09 3.76 3.09 3.76 3.09 3.25 3.72 2.84 4.44 2.54 5.22 2.22 5.38 2 5.7 2 6.09 2 6.09 2 11.09 2 11.09 2 11.64 2.45 12.08 3 12.08 3 12.08 13 12.08 13 12.08 13.55 12.08 14 11.64 14 11.09 14 11.09 14 8.59 14 8.59 14 8.59 16 7.09 16 7.09 16 7.09 16 11.09 16 11.09 16 12.74 14.66 14.09 13 14.09ZM 11.6 7.89C 11.42 8.02 11.21 8.09 11 8.09 10.85 8.09 10.7 8.05 10.55 7.98 10.22 7.81 10 7.47 10 7.09 10 7.09 10 6.09 10 6.09 7.39 6.09 5.17 7.76 4.35 10.09 4.13 9.46 4 8.79 4 8.09 4 4.77 6.69 2.09 10 2.09 10 2.09 10 1.09 10 1.09 10 0.71 10.22 0.37 10.55 0.2 10.7 0.13 10.85 0.09 11 0.09 11.21 0.09 11.42 0.16 11.6 0.29 11.6 0.29 15.6 3.29 15.6 3.29 15.85 3.48 16 3.77 16 4.09 16 4.4 15.85 4.7 15.6 4.89 15.6 4.89 11.6 7.89 11.6 7.89Z" fill="rgb(151,151,151)"/></svg>