<?xml version="1.0" encoding="utf-8"?>
<svg xmlns="http://www.w3.org/2000/svg"
	xmlns:xlink="http://www.w3.org/1999/xlink"
	width="15px" height="15px" viewBox="0 0 15 15">
<path fillRule="evenodd" d="M 12.19 12.18C 12.19 12.18 6.57 12.18 6.57 12.18 6.57 12.18 4.69 14.99 4.69 14.99 4.69 14.99 2.82 12.18 2.82 12.18 1.26 12.18 0 10.92 0 9.36 0 9.36 0 2.81 0 2.81 0 1.25 1.26-0.01 2.82-0.01 2.82-0.01 12.19-0.01 12.19-0.01 13.74-0.01 15 1.25 15 2.81 15 2.81 15 9.36 15 9.36 15 10.92 13.74 12.18 12.19 12.18Z" fill="rgb(151,151,151)" opacity="0.80"/></svg>